<svg width="1726" height="855" viewBox="0 0 1726 855" fill="none" xmlns="http://www.w3.org/2000/svg">
<mask id="mask0_1_290" style="mask-type:alpha" maskUnits="userSpaceOnUse" x="-2" y="0" width="1728" height="855">
<rect x="-2" width="1728" height="855" fill="#F3F3F5"/>
</mask>
<g mask="url(#mask0_1_290)">
<path d="M2012.01 330.708L2011.39 331.49C1967.93 386.135 1945.09 414.845 1930.13 442.679C1915.09 470.662 1908.01 497.75 1895.89 549.347C1883.81 600.729 1835.39 637.171 1781.05 646.902C1726.72 656.629 1666.58 639.64 1631.11 584.285C1613.28 556.469 1590.06 532.655 1565.97 509.886C1559.68 503.943 1553.33 498.072 1547.01 492.22C1529.08 475.639 1511.32 459.208 1495.5 441.709C1474.12 418.043 1456.33 392.457 1446.59 361.986C1436.85 331.521 1435.15 296.138 1445.97 252.86C1456.81 209.559 1471.94 181.136 1491.48 161.639C1511.02 142.144 1535.01 131.533 1563.64 123.932C1582.35 118.962 1603.01 115.287 1625.69 111.252C1637.73 109.11 1650.34 106.867 1663.53 104.276C1701.54 96.8069 1744.29 86.4539 1791.92 67.3051C1839.43 48.2078 1882.39 48.2593 1918.74 60.773C1955.1 73.2887 1984.87 98.2814 2005.99 129.114C2048.24 190.805 2055.73 275.739 2012.01 330.708Z" stroke="#D8D7DB" stroke-width="0.9"/>
<path d="M2000.31 330.67L1999.71 331.421C1958.03 383.835 1936.12 411.375 1921.77 438.075C1907.34 464.918 1900.55 490.903 1888.92 540.394C1877.34 589.67 1830.91 624.62 1778.78 633.953C1726.68 643.282 1669 626.988 1634.98 573.9C1617.88 547.217 1595.61 524.374 1572.5 502.534C1566.47 496.833 1560.38 491.202 1554.31 485.589C1537.12 469.685 1520.08 453.925 1504.91 437.141C1484.4 414.441 1467.34 389.902 1458 360.678C1448.66 331.46 1447.02 297.525 1457.41 256.016C1467.8 214.484 1482.31 187.224 1501.05 168.526C1519.79 149.83 1542.8 139.654 1570.26 132.363C1588.21 127.597 1608.02 124.071 1629.78 120.201C1641.32 118.147 1653.42 115.995 1666.07 113.509C1702.53 106.345 1743.54 96.4146 1789.23 78.0467C1834.79 59.7304 1875.99 59.7801 1910.85 71.7816C1945.72 83.785 1974.28 107.755 1994.53 137.326C2035.05 196.495 2042.24 277.954 2000.31 330.67Z" stroke="#D8D7DB" stroke-width="0.9"/>
<path d="M1987.89 330.631L1987.31 331.35C1947.51 381.393 1926.6 407.69 1912.89 433.186C1899.11 458.818 1892.63 483.632 1881.52 530.887C1870.47 577.926 1826.14 611.293 1776.38 620.203C1726.64 629.11 1671.58 613.554 1639.1 562.873C1622.77 537.393 1601.5 515.581 1579.43 494.727C1573.67 489.284 1567.86 483.907 1562.07 478.547C1545.65 463.362 1529.38 448.315 1514.9 432.29C1495.31 410.617 1479.03 387.189 1470.11 359.289C1461.19 331.395 1459.63 298.997 1469.55 259.366C1479.47 219.713 1493.32 193.689 1511.22 175.839C1529.1 157.991 1551.07 148.276 1577.28 141.315C1594.42 136.764 1613.34 133.398 1634.11 129.703C1645.14 127.742 1656.69 125.687 1668.77 123.314C1703.58 116.473 1742.74 106.991 1786.36 89.4521C1829.86 71.9649 1869.19 72.0128 1902.48 83.4704C1935.77 94.9299 1963.03 117.814 1982.37 146.046C2021.06 202.536 2027.91 280.305 1987.89 330.631Z" stroke="#D8D7DB" stroke-width="0.9"/>
<path d="M1974.95 330.59L1974.4 331.277C1936.57 378.852 1916.68 403.855 1903.65 428.096C1890.55 452.469 1884.38 476.063 1873.82 520.99C1863.32 565.701 1821.18 597.42 1773.88 605.89C1726.59 614.356 1674.25 599.569 1643.38 551.393C1627.85 527.166 1607.63 506.427 1586.65 486.6C1581.17 481.425 1575.65 476.312 1570.14 471.216C1554.53 456.779 1539.06 442.475 1525.3 427.24C1506.68 406.636 1491.2 384.365 1482.72 357.844C1474.24 331.328 1472.76 300.53 1482.18 262.855C1491.62 225.158 1504.79 200.419 1521.79 183.453C1538.8 166.488 1559.67 157.252 1584.6 150.635C1600.89 146.308 1618.88 143.109 1638.62 139.596C1649.11 137.731 1660.09 135.777 1671.57 133.52C1704.67 127.017 1741.9 118.001 1783.38 101.326C1824.73 84.7018 1862.12 84.7477 1893.76 95.639C1925.4 106.532 1951.33 128.285 1969.71 155.124C2006.48 208.826 2013 282.753 1974.95 330.59Z" stroke="#D8D7DB" stroke-width="0.9"/>
<path d="M1962.47 330.55L1961.95 331.203C1926 376.399 1907.11 400.153 1894.73 423.184C1882.28 446.342 1876.42 468.76 1866.4 511.44C1856.42 553.905 1816.4 584.033 1771.46 592.078C1726.55 600.12 1676.84 586.074 1647.51 540.316C1632.76 517.298 1613.55 497.594 1593.62 478.758C1588.41 473.841 1583.16 468.984 1577.93 464.143C1563.1 450.428 1548.41 436.839 1535.33 422.367C1517.64 402.794 1502.94 381.64 1494.89 356.448C1486.83 331.262 1485.42 302.009 1494.38 266.221C1503.34 230.411 1515.85 206.913 1532 190.799C1548.15 174.686 1567.98 165.914 1591.65 159.627C1607.13 155.518 1624.22 152.478 1642.98 149.141C1652.94 147.369 1663.37 145.514 1674.28 143.369C1705.72 137.19 1741.1 128.625 1780.5 112.783C1819.78 96.9919 1855.3 97.036 1885.35 107.381C1915.41 117.728 1940.03 138.39 1957.49 163.883C1992.42 214.895 1998.61 285.114 1962.47 330.55Z" stroke="#D8D7DB" stroke-width="0.9"/>
<path d="M1949.5 330.508L1949.01 331.13C1915.03 373.851 1897.17 396.307 1885.46 418.081C1873.69 439.975 1868.15 461.17 1858.67 501.516C1849.25 541.646 1811.42 570.122 1768.95 577.726C1726.5 585.326 1679.52 572.051 1651.81 528.805C1637.86 507.043 1619.7 488.415 1600.85 470.609C1595.94 465.96 1590.97 461.369 1586.02 456.793C1572.01 443.828 1558.12 430.983 1545.76 417.303C1529.04 398.802 1515.14 378.808 1507.53 354.998C1499.92 331.195 1498.59 303.545 1507.05 269.719C1515.52 235.87 1527.35 213.662 1542.61 198.433C1557.87 183.205 1576.61 174.914 1598.99 168.972C1613.62 165.088 1629.77 162.215 1647.5 159.06C1656.92 157.385 1666.78 155.631 1677.1 153.604C1706.82 147.763 1740.26 139.665 1777.51 124.689C1814.64 109.763 1848.21 109.805 1876.61 119.582C1905.02 129.362 1928.29 148.89 1944.79 172.985C1977.81 221.202 1983.65 287.569 1949.5 330.508Z" stroke="#D8D7DB" stroke-width="0.9"/>
<path d="M1937.31 330.469L1936.84 331.059C1904.71 371.454 1887.82 392.692 1876.75 413.283C1865.62 433.99 1860.38 454.035 1851.42 492.186C1842.5 530.122 1806.75 557.043 1766.6 564.232C1726.46 571.418 1682.04 558.867 1655.84 517.984C1642.65 497.403 1625.48 479.786 1607.66 462.948C1603.01 458.552 1598.31 454.209 1593.63 449.882C1580.38 437.622 1567.25 425.478 1555.56 412.542C1539.75 395.049 1526.61 376.145 1519.42 353.635C1512.22 331.131 1510.96 304.99 1518.96 273.007C1526.97 241.002 1538.15 220.006 1552.58 205.61C1567.01 191.215 1584.73 183.376 1605.88 177.758C1619.72 174.084 1634.99 171.368 1651.75 168.385C1660.66 166.801 1669.98 165.142 1679.74 163.225C1707.85 157.702 1739.47 150.045 1774.7 135.881C1809.8 121.77 1841.54 121.81 1868.39 131.054C1895.25 140.299 1917.25 158.762 1932.85 181.543C1964.07 227.131 1969.59 289.876 1937.31 330.469Z" stroke="#D8D7DB" stroke-width="0.9"/>
<path d="M1925.81 330.433L1925.36 330.994C1894.98 369.195 1879.01 389.282 1868.54 408.759C1858.01 428.346 1853.05 447.307 1844.57 483.389C1836.15 519.255 1802.34 544.712 1764.37 551.51C1726.42 558.305 1684.42 546.437 1659.65 507.78C1647.17 488.312 1630.93 471.649 1614.07 455.724C1609.67 451.566 1605.23 447.459 1600.81 443.366C1588.27 431.771 1575.86 420.287 1564.8 408.054C1549.85 391.511 1537.43 373.635 1530.62 352.35C1523.82 331.071 1522.63 306.352 1530.2 276.108C1537.77 245.84 1548.34 225.988 1561.99 212.377C1575.63 198.766 1592.38 191.354 1612.39 186.041C1625.47 182.567 1639.91 179.999 1655.77 177.178C1664.19 175.68 1673.01 174.111 1682.24 172.297C1708.82 167.073 1738.73 159.831 1772.05 146.435C1805.24 133.091 1835.25 133.129 1860.64 141.869C1886.04 150.611 1906.84 168.069 1921.59 189.611C1951.12 232.721 1956.34 292.051 1925.81 330.433Z" stroke="#D8D7DB" stroke-width="0.9"/>
<path d="M1915.33 330.399L1914.91 330.934C1886.11 367.137 1870.97 386.175 1861.05 404.636C1851.07 423.203 1846.37 441.176 1838.34 475.372C1830.35 509.353 1798.32 533.474 1762.34 539.916C1726.38 546.354 1686.59 535.109 1663.12 498.482C1651.29 480.029 1635.89 464.235 1619.92 449.142C1615.75 445.2 1611.54 441.308 1607.35 437.428C1595.47 426.44 1583.7 415.556 1573.23 403.963C1559.06 388.286 1547.28 371.347 1540.84 351.179C1534.39 331.017 1533.26 307.594 1540.43 278.933C1547.61 250.25 1557.63 231.44 1570.56 218.543C1583.48 205.648 1599.35 198.625 1618.31 193.59C1630.71 190.298 1644.39 187.864 1659.42 185.191C1667.4 183.771 1675.76 182.284 1684.51 180.565C1709.71 175.614 1738.05 168.749 1769.64 156.053C1801.09 143.408 1829.52 143.445 1853.58 151.726C1877.64 160.009 1897.36 176.552 1911.34 196.964C1939.31 237.816 1944.26 294.034 1915.33 330.399Z" stroke="#D8D7DB" stroke-width="0.9"/>
<path d="M1903.74 330.362L1903.34 330.867C1876.31 364.859 1862.09 382.739 1852.77 400.075C1843.39 417.514 1838.98 434.394 1831.44 466.504C1823.94 498.399 1793.88 521.043 1760.1 527.091C1726.34 533.135 1688.99 522.578 1666.96 488.196C1655.85 470.865 1641.39 456.033 1626.39 441.86C1622.47 438.158 1618.52 434.503 1614.58 430.86C1603.43 420.542 1592.38 410.323 1582.54 399.438C1569.24 384.719 1558.19 368.816 1552.14 349.883C1546.09 330.956 1545.02 308.967 1551.76 282.059C1558.49 255.128 1567.9 237.47 1580.03 225.365C1592.17 213.261 1607.06 206.668 1624.87 201.941C1636.51 198.85 1649.35 196.564 1663.46 194.054C1670.96 192.721 1678.81 191.324 1687.02 189.71C1710.69 185.06 1737.31 178.615 1766.96 166.691C1796.49 154.82 1823.19 154.855 1845.77 162.629C1868.36 170.405 1886.86 185.934 1899.99 205.098C1926.25 243.451 1930.89 296.227 1903.74 330.362Z" stroke="#D8D7DB" stroke-width="0.9"/>
<path d="M1890.86 330.321L1890.48 330.793C1865.4 362.327 1852.21 378.917 1843.56 395.004C1834.86 411.187 1830.76 426.852 1823.77 456.642C1816.82 486.217 1788.94 507.219 1757.61 512.828C1726.3 518.434 1691.66 508.643 1671.22 476.757C1660.92 460.675 1647.5 446.911 1633.58 433.762C1629.95 430.327 1626.28 426.935 1622.63 423.555C1612.28 413.983 1602.03 404.504 1592.9 394.406C1580.56 380.752 1570.31 366.002 1564.7 348.442C1559.09 330.889 1558.1 310.494 1564.35 285.535C1570.6 260.553 1579.32 244.176 1590.58 232.951C1601.82 221.727 1615.64 215.612 1632.15 211.227C1642.95 208.36 1654.87 206.24 1667.96 203.911C1674.91 202.674 1682.2 201.378 1689.82 199.88C1711.77 195.566 1736.47 189.586 1763.99 178.523C1791.38 167.511 1816.14 167.545 1837.08 174.754C1858.03 181.966 1875.2 196.369 1887.37 214.143C1911.73 249.718 1916.03 298.666 1890.86 330.321Z" stroke="#D8D7DB" stroke-width="0.9"/>
<path d="M1878.25 330.281L1877.9 330.721C1854.73 359.849 1842.54 375.177 1834.55 390.042C1826.51 404.997 1822.72 419.473 1816.26 446.994C1809.84 474.299 1784.1 493.694 1755.17 498.874C1726.25 504.051 1694.27 495.009 1675.4 465.566C1665.87 450.705 1653.47 437.987 1640.62 425.839C1637.26 422.665 1633.87 419.531 1630.5 416.409C1620.94 407.566 1611.47 398.81 1603.04 389.483C1591.64 376.871 1582.18 363.248 1576.99 347.033C1571.81 330.823 1570.9 311.989 1576.67 288.936C1582.44 265.86 1590.5 250.737 1600.89 240.373C1611.28 230.01 1624.03 224.363 1639.28 220.313C1649.26 217.664 1660.27 215.706 1672.36 213.555C1678.78 212.412 1685.51 211.215 1692.56 209.831C1712.84 205.845 1735.66 200.319 1761.09 190.098C1786.38 179.928 1809.25 179.96 1828.59 186.617C1847.93 193.277 1863.78 206.577 1875.02 222.993C1897.53 255.85 1901.49 301.052 1878.25 330.281Z" stroke="#D8D7DB" stroke-width="0.9"/>
<path d="M1865.59 330.24L1865.27 330.648C1844.02 357.362 1832.83 371.424 1825.5 385.061C1818.13 398.784 1814.66 412.067 1808.73 437.31C1802.85 462.337 1779.25 480.119 1752.72 484.868C1726.21 489.615 1696.89 481.324 1679.59 454.333C1670.85 440.698 1659.47 429.03 1647.68 417.887C1644.6 414.975 1641.49 412.1 1638.4 409.236C1629.63 401.125 1620.95 393.096 1613.22 384.542C1602.76 372.975 1594.08 360.485 1589.33 345.618C1584.58 330.757 1583.75 313.488 1589.03 292.349C1594.33 271.187 1601.72 257.323 1611.24 247.822C1620.76 238.323 1632.46 233.146 1646.44 229.432C1655.59 227.003 1665.68 225.207 1676.77 223.234C1682.67 222.186 1688.84 221.088 1695.3 219.818C1713.91 216.162 1734.84 211.092 1758.17 201.716C1781.36 192.391 1802.33 192.42 1820.06 198.524C1837.79 204.629 1852.33 216.824 1862.63 231.875C1883.27 262.004 1886.9 303.447 1865.59 330.24Z" stroke="#D8D7DB" stroke-width="0.9"/>
<path d="M1852.93 330.2L1852.64 330.575C1833.31 354.875 1823.13 367.671 1816.46 380.082C1809.75 392.571 1806.59 404.661 1801.19 427.626C1795.85 450.375 1774.4 466.544 1750.27 470.863C1726.17 475.179 1699.51 467.641 1683.78 443.101C1675.83 430.691 1665.47 420.074 1654.74 409.935C1651.94 407.285 1649.11 404.669 1646.3 402.063C1638.32 394.684 1630.42 387.381 1623.39 379.601C1613.88 369.08 1605.99 357.721 1601.67 344.203C1597.35 330.691 1596.59 314.988 1601.4 295.762C1606.22 276.514 1612.94 263.908 1621.59 255.272C1630.25 246.637 1640.88 241.929 1653.6 238.551C1661.92 236.341 1671.1 234.708 1681.19 232.914C1686.55 231.96 1692.17 230.961 1698.05 229.805C1714.98 226.478 1734.03 221.866 1755.25 213.334C1776.34 204.854 1795.41 204.881 1811.53 210.431C1827.65 215.982 1840.87 227.07 1850.24 240.758C1869.01 268.159 1872.31 305.842 1852.93 330.2Z" stroke="#D8D7DB" stroke-width="0.9"/>
<path d="M1841.39 330.163L1841.12 330.509C1823.54 352.606 1814.28 364.248 1808.21 375.539C1802.1 386.904 1799.23 397.906 1794.32 418.793C1789.46 439.465 1769.97 454.162 1748.04 458.089C1726.13 462.012 1701.9 455.159 1687.6 432.855C1680.37 421.564 1670.95 411.904 1661.19 402.682C1658.64 400.271 1656.06 397.891 1653.5 395.52C1646.24 388.809 1639.07 382.169 1632.67 375.093C1624.03 365.527 1616.85 355.2 1612.92 342.913C1609 330.631 1608.31 316.356 1612.68 298.875C1617.06 281.372 1623.17 269.914 1631.03 262.066C1638.9 254.219 1648.56 249.94 1660.13 246.868C1667.7 244.859 1676.04 243.374 1685.22 241.742C1690.09 240.874 1695.2 239.965 1700.56 238.914C1715.95 235.888 1733.28 231.692 1752.59 223.93C1771.77 216.22 1789.09 216.246 1803.75 221.29C1818.41 226.336 1830.42 236.415 1838.94 248.859C1856 273.772 1859 308.027 1841.39 330.163Z" stroke="#D8D7DB" stroke-width="0.9"/>
<path d="M1828.17 330.121L1827.92 330.433C1812.35 350.008 1804.14 360.327 1798.76 370.336C1793.35 380.414 1790.8 390.169 1786.45 408.676C1782.15 426.968 1764.9 439.981 1745.48 443.458C1726.08 446.931 1704.63 440.864 1691.98 421.121C1685.56 411.11 1677.21 402.547 1668.56 394.375C1666.3 392.238 1664.02 390.128 1661.75 388.027C1655.32 382.081 1648.96 376.199 1643.3 369.931C1635.64 361.457 1629.29 352.313 1625.81 341.435C1622.34 330.562 1621.72 317.923 1625.6 302.441C1629.48 286.937 1634.89 276.794 1641.85 269.848C1648.81 262.904 1657.36 259.115 1667.6 256.395C1674.31 254.615 1681.7 253.3 1689.83 251.854C1694.15 251.085 1698.68 250.279 1703.42 249.347C1717.07 246.665 1732.43 242.947 1749.54 236.067C1766.52 229.24 1781.86 229.264 1794.84 233.729C1807.81 238.196 1818.45 247.12 1826 258.138C1841.1 280.201 1843.75 310.529 1828.17 330.121Z" stroke="#D8D7DB" stroke-width="0.9"/>
<path d="M1813.99 330.076L1813.77 330.351C1800.35 347.223 1793.28 356.123 1788.63 364.758C1783.96 373.455 1781.76 381.873 1778.01 397.829C1774.31 413.569 1759.46 424.775 1742.74 427.77C1726.03 430.761 1707.57 425.536 1696.67 408.539C1691.14 399.901 1683.93 392.514 1676.48 385.467C1674.53 383.624 1672.56 381.805 1670.6 379.992C1665.06 374.867 1659.58 369.798 1654.7 364.396C1648.1 357.094 1642.63 349.218 1639.63 339.85C1636.64 330.488 1636.11 319.602 1639.45 306.265C1642.79 292.904 1647.45 284.17 1653.44 278.192C1659.43 272.216 1666.79 268.953 1675.62 266.609C1681.4 265.075 1687.77 263.942 1694.77 262.696C1698.5 262.033 1702.41 261.338 1706.5 260.534C1718.27 258.221 1731.51 255.014 1746.27 249.081C1760.9 243.2 1774.11 243.221 1785.28 247.066C1796.46 250.913 1805.62 258.597 1812.12 268.087C1825.13 287.094 1827.4 313.211 1813.99 330.076Z" stroke="#D8D7DB" stroke-width="0.9"/>
<path d="M1800.04 330.031L1799.85 330.271C1788.55 344.481 1782.58 351.985 1778.66 359.267C1774.72 366.605 1772.86 373.708 1769.71 387.152C1766.6 400.38 1754.11 409.808 1740.04 412.328C1725.98 414.845 1710.45 410.448 1701.29 396.155C1696.62 388.869 1690.55 382.639 1684.26 376.7C1682.62 375.145 1680.96 373.612 1679.31 372.084C1674.64 367.766 1670.03 363.498 1665.91 358.948C1660.36 352.799 1655.75 346.171 1653.24 338.29C1650.72 330.415 1650.27 321.256 1653.08 310.028C1655.9 298.777 1659.82 291.431 1664.86 286.406C1669.89 281.382 1676.08 278.637 1683.51 276.663C1688.38 275.371 1693.74 274.418 1699.64 273.368C1702.78 272.809 1706.08 272.223 1709.53 271.545C1719.45 269.596 1730.61 266.892 1743.06 261.89C1755.37 256.94 1766.48 256.96 1775.88 260.194C1785.28 263.429 1792.98 269.894 1798.45 277.88C1809.41 293.88 1811.31 315.852 1800.04 330.031Z" stroke="#D8D7DB" stroke-width="0.9"/>
<path d="M284.012 621.408L283.39 622.19C239.929 676.835 217.095 705.545 202.132 733.379C187.09 761.362 180.007 788.45 167.885 840.047C155.814 891.429 107.395 927.871 53.0485 937.602C-1.27869 947.329 -61.417 930.34 -96.8932 874.985C-114.72 847.169 -137.938 823.355 -162.031 800.586C-168.32 794.643 -174.667 788.772 -180.993 782.92C-198.919 766.34 -216.683 749.909 -232.497 732.409C-253.885 708.743 -271.671 683.158 -281.411 652.687C-291.149 622.221 -292.854 586.838 -282.026 543.56C-271.192 500.259 -256.059 471.836 -236.518 452.339C-216.978 432.844 -192.99 422.233 -164.362 414.632C-145.647 409.662 -124.985 405.987 -102.306 401.952C-90.2662 399.81 -77.6578 397.567 -64.47 394.976C-26.4614 387.507 16.2933 377.154 63.9241 358.005C111.427 338.908 154.385 338.959 190.737 351.473C227.095 363.989 256.874 388.982 277.99 419.814C320.238 481.505 327.73 566.44 284.012 621.408Z" stroke="#D8D7DB" stroke-width="0.9"/>
<path d="M272.31 621.371L271.714 622.121C230.027 674.535 208.124 702.075 193.771 728.775C179.341 755.618 172.547 781.603 160.92 831.094C149.343 880.37 102.908 915.32 50.7847 924.653C-1.31936 933.982 -58.9951 917.688 -93.0186 864.6C-110.12 837.917 -132.391 815.074 -155.501 793.234C-161.533 787.533 -167.621 781.902 -173.689 776.289C-190.884 760.385 -207.922 744.625 -223.09 727.841C-243.604 705.141 -260.662 680.603 -270.004 651.379C-279.343 622.16 -280.979 588.225 -270.593 546.716C-260.202 505.184 -245.688 477.924 -226.947 459.227C-208.208 440.53 -185.202 430.354 -157.744 423.063C-139.794 418.297 -119.977 414.771 -98.2237 410.901C-86.6753 408.847 -74.5811 406.695 -61.9306 404.21C-25.4727 397.046 15.5382 387.115 61.2266 368.747C106.787 350.431 147.987 350.48 182.851 362.482C217.721 374.485 246.282 398.455 266.533 428.026C307.055 487.195 314.237 568.654 272.31 621.371Z" stroke="#D8D7DB" stroke-width="0.9"/>
<path d="M259.886 621.331L259.314 622.051C219.513 672.094 198.598 698.391 184.893 723.886C171.114 749.519 164.626 774.332 153.524 821.587C142.473 868.626 98.1439 901.994 48.3813 910.903C-1.36224 919.81 -56.4232 904.254 -88.9042 853.573C-105.234 828.093 -126.5 806.281 -148.567 785.427C-154.327 779.984 -160.14 774.607 -165.934 769.247C-182.352 754.062 -198.619 739.015 -213.101 722.99C-232.687 701.317 -248.973 677.889 -257.891 649.99C-266.807 622.095 -268.369 589.697 -258.453 550.067C-248.532 510.414 -234.675 484.389 -216.785 466.54C-198.896 448.692 -176.933 438.976 -150.718 432.015C-133.579 427.464 -114.659 424.099 -93.8889 420.404C-82.8621 418.442 -71.3138 416.388 -59.234 414.014C-24.4225 407.173 14.7369 397.691 58.3626 380.152C101.86 362.665 141.194 362.713 174.478 374.171C207.767 385.63 235.035 408.514 254.369 436.746C293.056 493.237 299.912 571.005 259.886 621.331Z" stroke="#D8D7DB" stroke-width="0.9"/>
<path d="M246.951 621.29L246.405 621.977C208.566 669.552 188.681 694.555 175.65 718.796C162.548 743.169 156.379 766.764 145.825 811.69C135.32 856.401 93.1836 888.12 45.8784 896.59C-1.40781 905.057 -53.7467 890.269 -84.622 842.094C-100.149 817.867 -120.369 797.127 -141.349 777.3C-146.826 772.125 -152.353 767.012 -157.862 761.917C-173.47 747.48 -188.935 733.175 -202.703 717.94C-221.323 697.336 -236.805 675.065 -245.282 648.544C-253.758 622.028 -255.243 591.23 -245.817 553.555C-236.385 515.858 -223.212 491.119 -206.206 474.153C-189.202 457.188 -168.326 447.952 -143.403 441.335C-127.11 437.008 -109.123 433.809 -89.3772 430.296C-78.8934 428.431 -67.9135 426.478 -56.4277 424.221C-23.3302 417.717 13.9017 408.701 55.3802 392.026C96.7305 375.402 134.122 375.448 165.76 386.339C197.405 397.232 223.325 418.986 241.705 445.824C278.483 499.526 284.997 573.453 246.951 621.29Z" stroke="#D8D7DB" stroke-width="0.9"/>
<path d="M234.47 621.25L233.95 621.904C198.005 667.099 179.112 690.854 166.731 713.885C154.283 737.042 148.422 759.46 138.395 802.14C128.419 844.605 88.3976 874.733 43.4636 882.778C-1.45133 890.82 -51.1636 876.774 -80.4894 831.016C-95.2415 807.998 -114.453 788.294 -134.384 769.458C-139.587 764.541 -144.838 759.684 -150.072 754.843C-164.9 741.128 -179.59 727.54 -192.669 713.067C-210.357 693.495 -225.062 672.34 -233.115 647.148C-241.165 621.963 -242.576 592.709 -233.622 556.921C-224.662 521.111 -212.149 497.614 -195.998 481.499C-179.848 465.386 -160.019 456.614 -136.345 450.328C-120.867 446.218 -103.781 443.178 -85.0233 439.841C-75.0634 438.069 -64.6319 436.214 -53.7193 434.069C-22.2757 427.891 13.0962 419.325 52.5027 403.483C91.7811 387.692 127.297 387.736 157.349 398.081C187.406 408.428 212.027 429.09 229.485 454.583C264.421 505.595 270.606 575.815 234.47 621.25Z" stroke="#D8D7DB" stroke-width="0.9"/>
<path d="M221.5 621.208L221.006 621.83C187.029 664.551 169.168 687.008 157.463 708.781C145.694 730.676 140.153 751.87 130.674 792.216C121.246 832.346 83.4241 860.822 40.9542 868.426C-1.49674 876.027 -48.4795 862.751 -76.1952 819.506C-90.1423 797.744 -108.305 779.115 -127.146 761.309C-132.065 756.661 -137.029 752.069 -141.977 747.493C-155.994 734.528 -169.88 721.684 -182.243 708.003C-198.962 689.503 -212.861 669.508 -220.471 645.699C-228.08 621.895 -229.414 594.246 -220.95 560.419C-212.481 526.57 -200.654 504.362 -185.39 489.133C-170.128 473.906 -151.388 465.614 -129.011 459.673C-114.38 455.788 -98.2306 452.915 -80.499 449.76C-71.0836 448.085 -61.2221 446.331 -50.9051 444.304C-21.1802 438.463 12.259 430.366 49.5124 415.389C86.6377 400.463 120.206 400.506 148.608 410.283C177.015 420.062 200.285 439.59 216.787 463.685C249.808 511.902 255.651 578.269 221.5 621.208Z" stroke="#D8D7DB" stroke-width="0.9"/>
<path d="M209.307 621.17L208.838 621.76C176.71 662.155 159.82 683.392 148.751 703.983C137.619 724.69 132.379 744.735 123.416 782.886C114.504 820.822 78.7485 847.743 38.5952 854.933C-1.53922 862.119 -45.956 849.568 -72.1579 808.684C-85.3481 788.103 -102.525 770.486 -120.342 753.648C-124.994 749.252 -129.688 744.91 -134.367 740.582C-147.621 728.322 -160.751 716.178 -172.44 703.243C-188.249 685.75 -201.389 666.845 -208.584 644.335C-215.778 621.831 -217.039 595.69 -209.037 563.707C-201.029 531.702 -189.847 510.706 -175.418 496.31C-160.989 481.915 -143.274 474.076 -122.115 468.458C-108.281 464.785 -93.0119 462.068 -76.2454 459.086C-67.3418 457.502 -58.0161 455.843 -48.2591 453.925C-20.15 448.402 11.4722 440.745 46.7014 426.582C81.8025 412.47 113.539 412.51 140.39 421.754C167.247 430.999 189.248 449.462 204.849 472.243C236.07 517.831 241.592 580.576 209.307 621.17Z" stroke="#D8D7DB" stroke-width="0.9"/>
<path d="M197.81 621.133L197.364 621.694C166.981 659.896 151.005 679.983 140.536 699.459C130.006 719.046 125.05 738.007 116.573 774.089C108.147 809.956 74.3404 835.412 36.3712 842.21C-1.57895 849.005 -43.5762 837.137 -68.3509 798.48C-80.8274 779.013 -97.0742 762.35 -113.925 746.425C-118.326 742.266 -122.766 738.159 -127.191 734.066C-139.726 722.472 -152.142 710.987 -163.197 698.754C-178.147 682.211 -190.573 664.335 -197.376 643.05C-204.178 621.771 -205.371 597.053 -197.804 566.808C-190.231 536.541 -179.657 516.688 -166.014 503.077C-152.373 489.466 -135.622 482.054 -115.613 476.742C-102.531 473.268 -88.0909 470.699 -72.2343 467.878C-63.8134 466.38 -54.9929 464.811 -45.7639 462.997C-19.1783 457.773 10.7306 450.531 44.0513 437.135C77.2438 423.791 107.253 423.83 132.642 432.57C158.037 441.311 178.84 458.769 193.593 480.311C223.117 523.421 228.336 582.752 197.81 621.133Z" stroke="#D8D7DB" stroke-width="0.9"/>
<path d="M187.333 621.099L186.908 621.634C158.115 657.837 142.973 676.876 133.049 695.336C123.068 713.903 118.37 731.876 110.337 766.072C102.353 800.053 70.323 824.174 34.3444 830.616C-1.61527 837.055 -41.4076 825.809 -64.8816 789.182C-76.7078 770.729 -92.1074 754.935 -108.078 739.842C-112.249 735.9 -116.457 732.008 -120.652 728.128C-132.531 717.14 -144.298 706.256 -154.774 694.663C-168.942 678.986 -180.716 662.047 -187.162 641.879C-193.607 621.717 -194.738 598.294 -187.567 569.634C-180.391 540.951 -170.371 522.14 -157.445 509.244C-144.52 496.349 -128.649 489.325 -109.688 484.291C-97.2899 480.999 -83.6064 478.564 -68.5792 475.891C-60.5981 474.471 -52.238 472.984 -43.4902 471.265C-18.293 466.314 10.0546 459.45 41.636 446.753C73.0893 434.108 101.524 434.145 125.581 442.426C149.644 450.71 169.356 467.252 183.336 487.664C211.313 528.516 216.256 584.734 187.333 621.099Z" stroke="#D8D7DB" stroke-width="0.9"/>
<path d="M175.744 621.062L175.343 621.567C148.307 655.559 134.087 673.439 124.768 690.776C115.394 708.214 110.981 725.094 103.438 757.204C95.9446 789.099 65.8789 811.743 32.1021 817.791C-1.65576 823.835 -39.0091 813.278 -61.0443 778.896C-72.1512 761.565 -86.6136 746.733 -101.611 732.56C-105.528 728.858 -109.48 725.203 -113.418 721.56C-124.573 711.242 -135.621 701.023 -145.457 690.138C-158.759 675.419 -169.812 659.516 -175.864 640.583C-181.914 621.656 -182.976 599.667 -176.244 572.759C-169.506 545.828 -160.099 528.17 -147.966 516.065C-135.834 503.961 -120.937 497.368 -103.134 492.641C-91.4932 489.55 -78.6462 487.265 -64.5363 484.754C-57.0418 483.421 -49.1909 482.025 -40.9753 480.41C-17.3139 475.761 9.30662 469.315 38.9641 457.392C68.4934 445.52 95.1874 445.555 117.77 453.329C140.359 461.105 158.865 476.634 171.989 495.798C198.255 534.151 202.893 586.927 175.744 621.062Z" stroke="#D8D7DB" stroke-width="0.9"/>
<path d="M162.855 621.021L162.48 621.493C137.4 653.027 124.205 669.617 115.558 685.704C106.858 701.887 102.764 717.552 95.7653 747.342C88.8172 776.918 60.9363 797.919 29.6081 803.528C-1.70107 809.134 -36.342 799.343 -56.7771 767.457C-67.084 751.375 -80.5042 737.612 -94.4186 724.462C-98.0531 721.027 -101.72 717.635 -105.374 714.255C-115.723 704.683 -125.971 695.204 -135.096 685.106C-147.436 671.452 -157.687 656.702 -163.3 639.143C-168.911 621.589 -169.897 601.195 -163.652 576.235C-157.401 551.253 -148.676 534.876 -137.425 523.651C-126.175 512.427 -112.36 506.312 -95.846 501.927C-85.047 499.06 -73.1302 496.94 -60.0405 494.611C-53.087 493.374 -45.8026 492.079 -38.1789 490.581C-16.2254 486.267 8.47451 480.286 35.9924 469.223C63.3821 458.212 88.1399 458.245 109.084 465.455C130.033 472.666 147.197 487.069 159.37 504.843C183.733 540.419 188.031 589.366 162.855 621.021Z" stroke="#D8D7DB" stroke-width="0.9"/>
<path d="M150.245 620.981L149.895 621.421C126.729 650.549 114.538 665.877 106.547 680.742C98.508 695.697 94.7247 710.173 88.2593 737.694C81.8443 764.999 56.1011 784.394 27.1685 789.574C-1.74502 794.751 -33.7322 785.709 -52.602 756.266C-62.1261 741.405 -74.5266 728.688 -87.3816 716.539C-90.7399 713.365 -94.1279 710.232 -97.5041 707.109C-107.064 698.266 -116.53 689.51 -124.959 680.183C-136.357 667.571 -145.824 653.948 -151.007 637.733C-156.189 621.523 -157.099 602.689 -151.332 579.636C-145.558 556.56 -137.5 541.437 -127.111 531.073C-116.725 520.71 -103.968 515.063 -88.7151 511.013C-78.7399 508.364 -67.7333 506.406 -55.6416 504.255C-49.2175 503.112 -42.4872 501.915 -35.4426 500.531C-15.16 496.545 7.66075 491.019 33.0853 480.798C58.3817 470.628 81.2453 470.66 100.585 477.317C119.931 483.977 135.782 497.277 147.024 513.693C169.526 546.55 173.492 591.752 150.245 620.981Z" stroke="#D8D7DB" stroke-width="0.9"/>
<path d="M137.589 620.941L137.266 621.348C116.019 648.062 104.835 662.124 97.5038 675.762C90.1272 689.484 86.6561 702.767 80.7258 728.01C74.8461 753.037 51.2483 770.819 24.7203 775.569C-1.78879 780.315 -31.1125 772.025 -48.411 745.033C-57.1496 731.398 -68.5266 719.731 -80.3183 708.587C-83.3994 705.675 -86.5074 702.8 -89.6044 699.936C-98.3732 691.825 -107.054 683.796 -114.784 675.242C-125.237 663.675 -133.917 651.185 -138.669 636.318C-143.419 621.457 -144.255 604.188 -138.966 583.049C-133.671 561.887 -126.282 548.023 -116.76 538.522C-107.239 529.023 -95.5447 523.846 -81.5574 520.132C-72.4092 517.703 -62.3161 515.907 -51.2262 513.934C-45.3334 512.886 -39.1592 511.788 -32.6958 510.518C-14.0904 506.862 6.84434 501.793 30.1679 492.416C53.3632 483.091 74.3255 483.12 92.0561 489.224C109.792 495.33 124.325 507.524 134.633 522.575C155.267 552.704 158.899 594.147 137.589 620.941Z" stroke="#D8D7DB" stroke-width="0.9"/>
<path d="M124.934 620.9L124.635 621.276C105.309 645.575 95.1317 658.371 88.4605 670.782C81.7465 683.271 78.5875 695.361 73.1924 718.326C67.8478 741.075 46.3956 757.244 22.272 761.563C-1.83254 765.879 -28.4928 758.341 -44.2201 733.801C-52.173 721.392 -62.5267 710.774 -73.255 700.635C-76.0588 697.986 -78.8869 695.37 -81.7048 692.763C-89.6821 685.384 -97.5775 678.081 -104.609 670.301C-114.116 659.78 -122.009 648.421 -126.33 634.904C-130.65 621.391 -131.41 605.688 -126.6 586.463C-121.784 567.214 -115.064 554.608 -106.408 545.972C-97.7529 537.337 -87.1216 532.629 -74.3998 529.251C-66.0785 527.042 -56.8988 525.409 -46.8107 523.614C-41.4492 522.66 -35.8312 521.661 -29.949 520.505C-13.0208 517.179 6.02794 512.566 27.2504 504.034C48.3448 495.554 67.4058 495.581 83.5268 501.131C99.6535 506.682 112.869 517.77 122.242 531.458C141.008 558.859 144.306 596.543 124.934 620.9Z" stroke="#D8D7DB" stroke-width="0.9"/>
<path d="M113.39 620.863L113.115 621.209C95.5404 643.307 86.2816 654.948 80.212 666.239C74.1023 677.605 71.2281 688.606 66.3211 709.493C61.4646 730.165 41.9692 744.862 20.0387 748.789C-1.87272 752.712 -26.1036 745.859 -40.3979 723.556C-47.6343 712.264 -57.0545 702.604 -66.813 693.382C-69.364 690.971 -71.9368 688.592 -74.5001 686.221C-81.7554 679.51 -88.9347 672.869 -95.3288 665.794C-103.974 656.227 -111.149 645.901 -115.077 633.613C-119.003 621.331 -119.695 607.056 -115.321 589.576C-110.942 572.073 -104.833 560.614 -96.9663 552.766C-89.1014 544.919 -79.4394 540.64 -67.8717 537.568C-60.3046 535.559 -51.9581 534.074 -42.7837 532.442C-37.9069 531.575 -32.796 530.665 -27.444 529.614C-12.0455 526.588 5.28305 522.392 24.5892 514.631C43.7673 506.921 61.0941 506.946 75.7471 511.991C90.4058 517.037 102.419 527.116 110.941 539.559C128.002 564.472 130.996 598.727 113.39 620.863Z" stroke="#D8D7DB" stroke-width="0.9"/>
<path d="M100.168 620.821L99.9197 621.133C84.3508 640.709 76.144 651.027 70.7636 661.036C65.3461 671.114 62.798 680.869 58.4501 699.376C54.1527 717.668 36.8987 730.681 17.4801 734.158C-1.9194 737.631 -23.3678 731.564 -36.0206 711.821C-42.4363 701.811 -50.7874 693.247 -59.435 685.075C-61.6964 682.938 -63.9768 680.828 -66.2485 678.727C-72.6768 672.781 -79.0359 666.899 -84.7001 660.631C-92.3581 652.158 -98.7109 643.014 -102.188 632.135C-105.664 621.262 -106.277 608.623 -102.404 593.141C-98.5248 577.638 -93.1146 567.494 -86.153 560.548C-79.1927 553.604 -70.6409 549.815 -60.3952 547.095C-53.692 545.315 -46.2998 544 -38.1719 542.554C-33.8501 541.785 -29.3203 540.979 -24.5755 540.047C-10.929 537.365 4.4292 533.647 21.5405 526.768C38.5236 519.94 53.8642 519.964 66.8357 524.429C79.8129 528.897 90.4492 537.82 97.9951 548.838C113.105 570.901 115.75 601.229 100.168 620.821Z" stroke="#D8D7DB" stroke-width="0.9"/>
<path d="M85.9914 620.776L85.7722 621.052C72.354 637.923 65.2752 646.823 60.6336 655.458C55.9584 664.155 53.7599 672.573 50.0115 688.529C46.3136 704.269 31.4627 715.475 14.7376 718.47C-1.96864 721.461 -20.4335 716.236 -31.3265 699.239C-36.8622 690.602 -44.0668 683.214 -51.5234 676.168C-53.4743 674.324 -55.441 672.505 -57.4 670.693C-62.9418 665.567 -68.4215 660.498 -73.303 655.096C-79.9023 647.794 -85.3734 639.918 -88.3678 630.55C-91.3604 621.188 -91.8897 610.303 -88.5526 596.965C-85.2099 583.604 -80.5495 574.87 -74.5578 568.893C-68.5677 562.916 -61.2061 559.653 -52.378 557.309C-46.601 555.775 -40.232 554.642 -33.2262 553.396C-29.4996 552.733 -25.5927 552.038 -21.499 551.234C-9.7311 548.921 3.5145 545.714 18.2723 539.781C32.902 533.9 46.113 533.922 57.2815 537.766C68.4558 541.613 77.616 549.297 84.1155 558.787C97.1323 577.794 99.4044 603.911 85.9914 620.776Z" stroke="#D8D7DB" stroke-width="0.9"/>
<path d="M72.0375 620.732L71.8468 620.971C60.5455 635.181 54.5769 642.685 50.6626 649.967C46.7179 657.305 44.8636 664.408 41.7053 677.852C38.5974 691.081 26.112 700.508 12.0379 703.028C-2.01724 705.545 -17.5455 701.149 -26.7061 686.855C-31.3757 679.569 -37.452 673.339 -43.7362 667.4C-45.3814 665.845 -47.0394 664.312 -48.6906 662.785C-53.3598 658.466 -57.9739 654.198 -62.085 649.649C-67.6422 643.499 -72.2455 636.871 -74.7646 628.99C-77.2818 621.115 -77.7282 611.956 -74.919 600.728C-72.1042 589.478 -68.1817 582.131 -63.1449 577.106C-58.1096 572.082 -51.9197 569.337 -44.4868 567.363C-39.6215 566.072 -34.2596 565.118 -28.3584 564.068C-25.2175 563.509 -21.9238 562.923 -18.4709 562.245C-8.55214 560.296 2.61403 557.592 15.0554 552.591C27.3686 547.64 38.4833 547.66 47.8773 550.894C57.277 554.13 64.9842 560.594 70.4537 568.581C81.4107 584.58 83.3149 606.552 72.0375 620.732Z" stroke="#D8D7DB" stroke-width="0.9"/>
</g>
</svg>
