<svg width="44" height="37" viewBox="0 0 44 37" fill="none" xmlns="http://www.w3.org/2000/svg">
<g id="Group 9">
<path id="Vector" d="M41.1233 0.102238C40.9096 0.162086 37.5239 1.45307 33.5997 2.95779C29.6755 4.46251 21.1174 7.73698 14.577 10.242C8.03657 12.747 2.36822 14.9186 1.9664 15.081C0.615567 15.6282 0 16.1925 0 16.9106C0 17.3723 0.213739 17.6716 0.769459 17.9708C1.14564 18.176 11.0888 21.3393 11.4564 21.3735C11.5248 21.3821 16.7828 18.1332 23.1436 14.1491C29.4959 10.1736 34.8223 6.85638 34.9762 6.77089C35.3182 6.59989 35.8568 6.5657 36.0107 6.71959C36.0962 6.80508 36.0876 6.86493 35.9936 7.02737C35.9252 7.13852 31.6504 11.0115 26.5036 15.6282L17.1418 24.0324L16.8341 28.3585C16.6631 30.7353 16.4921 33.0436 16.4664 33.4711L16.4066 34.2662H16.7828C17.4667 34.2662 17.8685 33.9499 20.6813 31.2568L23.3317 28.7176L28.4016 32.4281C31.7445 34.8818 33.6339 36.207 33.9417 36.3352C34.2495 36.4549 34.6086 36.5233 34.9676 36.5233C35.8653 36.5319 36.3954 36.1386 36.84 35.1212C36.9255 34.9074 38.5328 27.5805 40.3966 18.8343C43.7395 3.15443 43.7908 2.92359 43.7566 2.11138C43.7309 1.37612 43.6967 1.23933 43.4659 0.871696C43.0128 0.136436 42.0552 -0.179897 41.1233 0.102238Z" fill="url(#paint0_linear_1_189)"/>
</g>
<defs>
<linearGradient id="paint0_linear_1_189" x1="23.2273" y1="37.2539" x2="23.2273" y2="2.73925" gradientUnits="userSpaceOnUse">
<stop stop-color="#E002C0" stop-opacity="0"/>
<stop offset="1" stop-color="#E002C0"/>
</linearGradient>
</defs>
</svg>
